<mxfile host="app.diagrams.net" modified="2023-07-18T20:25:58.540Z" agent="Mozilla/5.0 (Macintosh; Intel Mac OS X 10_15_7) AppleWebKit/537.36 (KHTML, like Gecko) Chrome/114.0.0.0 Safari/537.36" etag="9UQ3n6eSPCfUW7-Z0y1X" version="21.3.6" type="github">
  <diagram name="Page-1" id="eO7FiT_i-HfWzIFkXIoz">
    <mxGraphModel dx="954" dy="623" grid="1" gridSize="10" guides="1" tooltips="1" connect="1" arrows="1" fold="1" page="1" pageScale="1" pageWidth="850" pageHeight="1100" math="0" shadow="0">
      <root>
        <mxCell id="0" />
        <mxCell id="1" parent="0" />
        <mxCell id="Gz4OQwGg3zOOMkE949s_-1" value="Obfuscated identifiers" style="swimlane;whiteSpace=wrap;html=1;" vertex="1" parent="1">
          <mxGeometry x="140" y="180" width="200" height="200" as="geometry" />
        </mxCell>
        <mxCell id="Gz4OQwGg3zOOMkE949s_-3" value="+54 182 143 21743" style="rounded=1;whiteSpace=wrap;html=1;" vertex="1" parent="Gz4OQwGg3zOOMkE949s_-1">
          <mxGeometry x="40" y="40" width="120" height="60" as="geometry" />
        </mxCell>
        <mxCell id="Gz4OQwGg3zOOMkE949s_-4" value="Issuer" style="swimlane;whiteSpace=wrap;html=1;" vertex="1" parent="1">
          <mxGeometry x="380" y="180" width="200" height="200" as="geometry" />
        </mxCell>
        <mxCell id="Gz4OQwGg3zOOMkE949s_-5" value="Kaala wallet" style="rounded=1;whiteSpace=wrap;html=1;" vertex="1" parent="Gz4OQwGg3zOOMkE949s_-4">
          <mxGeometry x="40" y="40" width="120" height="60" as="geometry" />
        </mxCell>
        <mxCell id="Gz4OQwGg3zOOMkE949s_-8" value="" style="rounded=1;whiteSpace=wrap;html=1;" vertex="1" parent="Gz4OQwGg3zOOMkE949s_-4">
          <mxGeometry x="40" y="110" width="120" height="60" as="geometry" />
        </mxCell>
        <mxCell id="Gz4OQwGg3zOOMkE949s_-6" value="Address" style="swimlane;whiteSpace=wrap;html=1;" vertex="1" parent="1">
          <mxGeometry x="630" y="180" width="200" height="200" as="geometry" />
        </mxCell>
        <mxCell id="Gz4OQwGg3zOOMkE949s_-7" value="0x76a4dac...a7315" style="rounded=1;whiteSpace=wrap;html=1;" vertex="1" parent="Gz4OQwGg3zOOMkE949s_-6">
          <mxGeometry x="40" y="40" width="120" height="60" as="geometry" />
        </mxCell>
      </root>
    </mxGraphModel>
  </diagram>
</mxfile>
